<svg width="165" height="48" viewBox="0 0 165 48" fill="none" xmlns="http://www.w3.org/2000/svg">
<path fill-rule="evenodd" clip-rule="evenodd" d="M20 44C31.0457 44 40 35.0457 40 24C40 12.9543 31.0457 4 20 4C8.95428 4 0 12.9543 0 24C0 35.0457 8.95428 44 20 44ZM26.2393 13.3168C26.543 12.2381 25.4961 11.6001 24.54 12.2813L11.1931 21.7896C10.1562 22.5283 10.3193 24 11.4381 24H14.9527V23.9728H21.8025L16.2212 25.9421L13.7607 34.6832C13.457 35.762 14.5038 36.3999 15.46 35.7187L28.8069 26.2105C29.8438 25.4718 29.6806 24 28.5619 24H23.2321L26.2393 13.3168Z" fill="#FF7777"/>
<path d="M49.1364 15.7841V11.7273H68.25V15.7841H61.125V35H56.2614V15.7841H49.1364ZM73.9091 35.3295C72.7955 35.3295 71.803 35.1364 70.9318 34.75C70.0606 34.3561 69.3712 33.7765 68.8636 33.0114C68.3636 32.2386 68.1136 31.2765 68.1136 30.125C68.1136 29.1553 68.2917 28.3409 68.6477 27.6818C69.0038 27.0227 69.4886 26.4924 70.1023 26.0909C70.7159 25.6894 71.4129 25.3864 72.1932 25.1818C72.9811 24.9773 73.8068 24.8333 74.6705 24.75C75.6856 24.6439 76.5038 24.5455 77.125 24.4545C77.7462 24.3561 78.197 24.2121 78.4773 24.0227C78.7576 23.8333 78.8977 23.553 78.8977 23.1818V23.1136C78.8977 22.3939 78.6705 21.8371 78.2159 21.4432C77.7689 21.0492 77.1326 20.8523 76.3068 20.8523C75.4356 20.8523 74.7424 21.0455 74.2273 21.4318C73.7121 21.8106 73.3712 22.2879 73.2045 22.8636L68.7273 22.5C68.9545 21.4394 69.4015 20.5227 70.0682 19.75C70.7348 18.9697 71.5947 18.3712 72.6477 17.9545C73.7083 17.5303 74.9356 17.3182 76.3295 17.3182C77.2992 17.3182 78.2273 17.4318 79.1136 17.6591C80.0076 17.8864 80.7992 18.2386 81.4886 18.7159C82.1856 19.1932 82.7348 19.8068 83.1364 20.5568C83.5379 21.2992 83.7386 22.1894 83.7386 23.2273V35H79.1477V32.5795H79.0114C78.7311 33.125 78.3561 33.6061 77.8864 34.0227C77.4167 34.4318 76.8523 34.7538 76.1932 34.9886C75.5341 35.2159 74.7727 35.3295 73.9091 35.3295ZM75.2955 31.9886C76.0076 31.9886 76.6364 31.8485 77.1818 31.5682C77.7273 31.2803 78.1553 30.8939 78.4659 30.4091C78.7765 29.9242 78.9318 29.375 78.9318 28.7614V26.9091C78.7803 27.0076 78.572 27.0985 78.3068 27.1818C78.0492 27.2576 77.7576 27.3295 77.4318 27.3977C77.1061 27.4583 76.7803 27.5152 76.4545 27.5682C76.1288 27.6136 75.8333 27.6553 75.5682 27.6932C75 27.7765 74.5038 27.9091 74.0795 28.0909C73.6553 28.2727 73.3258 28.5189 73.0909 28.8295C72.8561 29.1326 72.7386 29.5114 72.7386 29.9659C72.7386 30.625 72.9773 31.1288 73.4545 31.4773C73.9394 31.8182 74.553 31.9886 75.2955 31.9886ZM87.4943 35V17.5455H92.3352V35H87.4943ZM89.9261 15.2955C89.2064 15.2955 88.589 15.0568 88.0739 14.5795C87.5663 14.0947 87.3125 13.5152 87.3125 12.8409C87.3125 12.1742 87.5663 11.6023 88.0739 11.125C88.589 10.6402 89.2064 10.3977 89.9261 10.3977C90.6458 10.3977 91.2595 10.6402 91.767 11.125C92.2822 11.6023 92.5398 12.1742 92.5398 12.8409C92.5398 13.5152 92.2822 14.0947 91.767 14.5795C91.2595 15.0568 90.6458 15.2955 89.9261 15.2955ZM101.054 11.7273V35H96.2131V11.7273H101.054ZM112.429 35V11.7273H117.349V21.9886H117.656L126.031 11.7273H131.929L123.293 22.1477L132.031 35H126.145L119.77 25.4318L117.349 28.3864V35H112.429ZM135.494 35V17.5455H140.335V35H135.494ZM137.926 15.2955C137.206 15.2955 136.589 15.0568 136.074 14.5795C135.566 14.0947 135.312 13.5152 135.312 12.8409C135.312 12.1742 135.566 11.6023 136.074 11.125C136.589 10.6402 137.206 10.3977 137.926 10.3977C138.646 10.3977 139.259 10.6402 139.767 11.125C140.282 11.6023 140.54 12.1742 140.54 12.8409C140.54 13.5152 140.282 14.0947 139.767 14.5795C139.259 15.0568 138.646 15.2955 137.926 15.2955ZM153.497 17.5455V21.1818H142.986V17.5455H153.497ZM145.372 13.3636H150.213V29.6364C150.213 30.0833 150.281 30.4318 150.418 30.6818C150.554 30.9242 150.743 31.0947 150.986 31.1932C151.236 31.2917 151.524 31.3409 151.849 31.3409C152.077 31.3409 152.304 31.322 152.531 31.2841C152.759 31.2386 152.933 31.2045 153.054 31.1818L153.815 34.7841C153.573 34.8598 153.232 34.947 152.793 35.0455C152.353 35.1515 151.819 35.2159 151.19 35.2386C150.024 35.2841 149.001 35.1288 148.122 34.7727C147.251 34.4167 146.573 33.8636 146.088 33.1136C145.603 32.3636 145.365 31.4167 145.372 30.2727V13.3636ZM159.48 35.2955C158.73 35.2955 158.086 35.0303 157.548 34.5C157.018 33.9621 156.753 33.3182 156.753 32.5682C156.753 31.8258 157.018 31.1894 157.548 30.6591C158.086 30.1288 158.73 29.8636 159.48 29.8636C160.207 29.8636 160.844 30.1288 161.389 30.6591C161.935 31.1894 162.207 31.8258 162.207 32.5682C162.207 33.0682 162.079 33.5265 161.821 33.9432C161.571 34.3523 161.241 34.6818 160.832 34.9318C160.423 35.1742 159.973 35.2955 159.48 35.2955Z" fill="black"/>
</svg>
